<svg width="64" height="64" viewBox="0 0 64 64" fill="none" xmlns="http://www.w3.org/2000/svg">
<rect width="64" height="64" fill="#7E58E3"/>
<path d="M35.4999 31.8852C34.8614 32.9999 34.1999 34.1032 33.5844 35.2321C31.6537 38.7782 29.7536 42.3409 27.8126 45.8831C27.2635 46.8868 26.4871 47.2584 25.7695 46.9188C24.8041 46.4616 23.6587 45.4835 24.0826 44.2065C25.0505 41.2861 26.0504 38.3759 27.0196 35.4542C27.8432 32.9552 28.6796 30.4601 29.4088 27.933C29.654 27.0774 29.5991 26.1274 29.6144 25.2195C29.6144 25.0598 29.2951 24.7649 29.1113 24.7546C28.4562 24.7176 28.4294 24.738 28.1752 24.1225C28.7652 23.6871 29.8928 23.9284 30.5453 24.5848C31.3191 25.365 31.5937 26.3508 31.5336 27.3711C31.4353 29.0567 31.231 30.7385 30.9897 32.4113C30.8466 33.4035 30.5478 34.3727 30.2758 35.5385C30.9041 34.5514 31.4123 33.6959 31.9755 32.8799C33.2141 31.0845 34.4489 29.2866 35.7463 27.5359C36.598 26.3866 37.2902 26.3534 38.3322 27.3124C38.5352 27.5001 38.7216 27.8704 38.6871 28.1245C38.4969 29.4998 38.2415 30.8674 37.9963 32.235C37.5609 34.6613 37.1024 37.0875 36.69 39.5137C36.5929 40.0934 36.6376 40.7051 36.6785 41.3014C36.6889 41.4207 36.7244 41.5364 36.7827 41.6409C36.8411 41.7455 36.9209 41.8365 37.0169 41.908C37.1548 41.9846 37.4983 41.8812 37.6324 41.7433C38.3845 40.9681 39.1647 40.2045 39.8198 39.3541C42.9317 35.3444 45.2469 30.8981 46.8941 26.1069C47.5005 24.3181 47.6755 22.4113 47.4049 20.542C47.1815 18.8819 45.8841 17.8604 44.5075 17.5781C42.4912 17.167 40.517 17.5194 38.5569 18.0123C37.7805 18.2077 36.9977 18.3762 36.2137 18.5422C36.0289 18.593 35.835 18.6009 35.6467 18.5652C35.4577 18.5142 35.2943 18.3673 35.1193 18.2613C35.247 18.1094 35.3364 17.8961 35.496 17.8131C37.8827 16.5796 40.4021 15.8389 43.1092 16.0471C45.8368 16.2552 48.1992 17.3074 49.9065 19.5153C51.0762 21.0272 51.2894 22.8201 51.0149 24.6499C50.3662 28.9916 48.4303 32.8378 46.2046 36.5358C45.0777 38.4006 43.821 40.1838 42.4439 41.8722C41.6586 42.8376 40.6179 43.66 39.5516 44.3214C36.7973 46.0287 34.4975 43.8668 34.0007 41.6756C33.5551 39.7129 34.0786 37.7668 34.5268 35.8539C34.8333 34.5476 35.233 33.2643 35.5918 31.972L35.4999 31.8852Z" fill="white"/>
<path d="M38.7229 52.9282C37.5506 54.3992 35.9506 55.1884 34.1718 55.6098C28.7256 56.911 24.4286 54.8627 20.8698 50.885C17.0006 46.5613 14.7174 41.4139 13.2859 35.8514C12.1865 31.5787 11.7331 27.2371 12.1571 22.8393C12.5402 18.8309 13.6013 15.0409 16.1948 11.8255C19.0284 8.3241 24.527 7.00245 28.6464 8.80296C31.0726 9.86283 33.0621 11.4846 34.8448 13.4C35.0336 13.6019 35.1619 13.8528 35.2151 14.124C34.9597 13.9836 34.6954 13.8469 34.4387 13.7026C32.7378 12.7475 31.0867 11.6825 29.3232 10.8614C27.1332 9.83984 24.8143 9.34183 22.4072 10.1591C20.4369 10.8282 19.2046 12.3299 18.1779 14.0308C15.7517 18.0698 14.9855 22.5009 15.2409 27.1285C15.5525 32.8582 16.9661 38.3211 19.5685 43.4455C21.2771 46.809 23.4364 49.8456 26.4935 52.1454C28.2071 53.4338 30.1073 54.2945 32.2755 54.4222C33.7823 54.5116 35.2304 54.1809 36.644 53.6918C37.3412 53.4492 38.0295 53.1823 38.7229 52.9282Z" fill="white"/>
</svg>
