<svg width="241" height="160" viewBox="0 0 241 160" fill="none" xmlns="http://www.w3.org/2000/svg">
<path d="M85.7496 67.713C84.1534 70.5 82.4997 73.2582 80.961 76.0803C76.1341 84.9455 71.3839 93.8523 66.5314 102.708C65.1587 105.217 63.2177 106.146 61.4236 105.297C59.0102 104.154 56.1466 101.709 57.2064 98.5164C59.6263 91.2154 62.1259 83.9399 64.5489 76.6358C66.608 70.3882 68.6991 64.1503 70.5219 57.8326C71.1348 55.6937 70.9976 53.3185 71.0359 51.0488C71.0359 50.6497 70.2378 49.9123 69.7781 49.8867C68.1404 49.7941 68.0733 49.8452 67.4381 48.3065C68.9129 47.2179 71.7318 47.8212 73.3631 49.4621C75.2977 51.4127 75.9841 53.8772 75.834 56.4279C75.5882 60.6419 75.0774 64.8463 74.4741 69.0283C74.1165 71.5088 73.3695 73.9318 72.6895 76.8464C74.2602 74.3787 75.5308 72.2398 76.9386 70.1999C80.0352 65.7114 83.1223 61.2165 86.3657 56.8398C88.495 53.9666 90.2253 53.8836 92.8303 56.2811C93.3379 56.7504 93.804 57.6762 93.7178 58.3114C93.2421 61.7496 92.6037 65.1687 91.9907 68.5877C90.9021 74.6533 89.756 80.7188 88.7249 86.7844C88.4823 88.2337 88.594 89.7629 88.6962 91.2537C88.7221 91.5519 88.811 91.8411 88.9568 92.1025C89.1026 92.3639 89.3021 92.5914 89.5422 92.7701C89.8869 92.9616 90.7457 92.703 91.0809 92.3583C92.9612 90.4205 94.9118 88.5114 96.5495 86.3853C104.329 76.3612 110.117 65.2453 114.235 53.2675C115.751 48.7954 116.189 44.0283 115.512 39.355C114.954 35.2049 111.71 32.651 108.269 31.9455C103.228 30.9175 98.2925 31.7986 93.3922 33.0309C91.4512 33.5193 89.4943 33.9407 87.5341 34.3557C87.0722 34.4826 86.5874 34.5023 86.1167 34.4132C85.6442 34.2855 85.2356 33.9184 84.7983 33.6534C85.1175 33.2735 85.341 32.7404 85.74 32.5329C91.7066 29.449 98.0052 27.5975 104.773 28.1178C111.592 28.6382 117.498 31.2687 121.766 36.7884C124.69 40.5681 125.223 45.0503 124.537 49.6249C122.915 60.4791 118.076 70.0945 112.511 79.3397C109.694 84.0016 106.553 88.4596 103.11 92.6807C101.146 95.0941 98.5447 97.15 95.879 98.8037C88.9931 103.072 83.2436 97.6672 82.0017 92.1891C80.8876 87.2824 82.1965 82.4172 83.317 77.635C84.0832 74.3692 85.0824 71.1608 85.9794 67.9301L85.7496 67.713Z" fill="black"/>
<path d="M192.848 69.3536C191.066 70.9498 188.809 72.8429 186.667 74.8732C183.363 78.0049 180.436 81.5772 176.388 83.8374C175.258 84.4759 173.984 85.0378 172.723 85.1814C168.892 85.6156 164.643 81.6698 164.662 77.7336C164.662 75.965 164.822 74.0847 165.435 72.4502C167.487 66.9625 169.751 61.5546 172.002 56.1403C172.64 54.6047 173.33 54.4515 174.875 55.1826C177.601 56.4787 178.501 58.3207 177.598 61.5482C176.436 65.6983 175.015 69.7782 173.805 73.9155C173.521 74.8956 173.63 75.9874 173.559 77.0281C174.412 76.6131 175.398 76.3577 176.097 75.7511C182.38 70.3783 188.647 64.9864 194.821 59.4699C195.673 58.7101 195.938 57.3119 196.557 56.2584C197.036 55.438 197.636 54.6909 198.186 53.912C199.143 54.592 200.625 55.0964 200.921 55.9966C201.532 57.8468 201.763 59.8014 201.598 61.7429C201.279 65.2545 200.532 68.6991 199.935 72.3576C202.355 71.352 204.816 70.3081 207.277 69.3025C210.151 68.1309 213.024 66.9497 215.945 65.8707C216.626 65.6089 217.378 65.5998 218.065 65.8451C218.764 66.1644 219.262 66.9178 219.846 67.486C219.341 67.9393 218.907 68.5204 218.329 68.8236C211.814 72.2235 205.263 75.5564 198.763 78.9818C198.014 79.398 197.42 80.0453 197.068 80.827C193.627 89.1943 189.949 97.4274 184.742 104.898C181.939 108.91 178.935 112.741 174.747 115.433C171.966 117.252 168.921 118.344 165.582 117.67C162.408 117.013 159.005 111.809 159.111 108.157C159.21 104.697 160.787 101.871 162.871 99.2663C167.765 93.1496 173.856 88.3802 180.235 83.9428C182.709 82.2253 185.343 80.7153 187.813 79.0169C188.532 78.5213 189.111 77.8482 189.493 77.0632C190.773 74.305 191.925 71.4957 192.848 69.3536ZM184.097 89.1847L183.647 88.9325C183.504 88.984 183.365 89.0481 183.232 89.124C177.952 92.8847 172.959 97.0092 168.713 101.894C167.034 103.828 166.022 106.363 164.883 108.709C164.656 109.175 164.988 110.21 165.412 110.625C165.751 110.944 166.661 110.845 167.248 110.682C167.775 110.539 168.241 110.095 168.685 109.725C174.329 104.936 178.533 98.9949 182.457 92.8049C183.14 91.7003 183.542 90.3978 184.097 89.1847Z" fill="black"/>
<path d="M93.8072 120.32C90.8766 123.998 86.8765 125.971 82.4295 127.024C68.814 130.277 58.0716 125.157 49.1744 115.213C39.5014 104.403 33.7935 91.5346 30.2148 77.6286C27.4661 66.9468 26.3328 56.0927 27.3927 45.0981C28.3504 35.0772 31.0033 25.6022 37.487 17.5638C44.571 8.81025 58.3174 5.50612 68.616 10.0074C74.6816 12.6571 79.6553 16.7114 84.1119 21.5C84.5839 22.0048 84.9047 22.6319 85.0377 23.3101C84.3992 22.9589 83.7384 22.6173 83.0967 22.2566C78.8444 19.8687 74.7167 17.2062 70.308 15.1535C64.8331 12.5996 59.0357 11.3546 53.018 13.3977C48.0922 15.0705 45.0115 18.8248 42.4448 23.077C36.3793 33.1746 34.4639 44.2522 35.1023 55.8214C35.8813 70.1456 39.4153 83.8027 45.9213 96.6137C50.1928 105.022 55.5911 112.614 63.2337 118.363C67.5178 121.585 72.2681 123.736 77.6888 124.055C81.4558 124.279 85.076 123.452 88.61 122.229C90.353 121.623 92.0737 120.956 93.8072 120.32Z" fill="#7E58E3"/>
<path d="M140.828 79.1128C139.34 80.7409 138.022 82.5765 136.33 83.9492C133.591 86.1839 130.781 88.4186 127.691 90.0754C122.539 92.8273 117.533 89.654 117.032 83.7417C116.712 79.7959 117.823 76.262 119.525 72.7759C121.859 67.9873 124.416 63.3743 127.892 59.3295C128.99 58.0526 130.207 56.8203 132.109 56.7756C135.621 56.7054 139.165 60.8842 138.373 64.4374C136.634 72.2098 131.983 77.44 124.419 80.128C123.839 80.3791 123.37 80.8331 123.1 81.4049C122.779 82.1809 122.583 83.0031 122.519 83.8407C122.379 85.1017 123.34 85.8966 124.617 85.6316C127.988 84.9421 130.526 82.7585 132.917 80.5653C136.825 76.9771 140.489 73.127 144.205 69.3345C144.729 68.7982 145.007 67.9905 145.304 67.269C149.513 57.0278 153.719 46.7728 157.92 36.504C158.178 35.8655 158.392 35.227 158.625 34.5885C159.325 32.6539 160.059 32.3539 161.818 33.3658C162.361 33.6961 162.878 34.0663 163.366 34.4736C165.24 35.9453 165.112 36.3188 164.129 38.4226C161.064 44.9574 157.961 51.489 155.267 58.1835C151.73 66.9785 148.541 75.9172 146.328 85.1592C146.07 86.235 145.942 87.3428 145.712 88.4282C145.393 89.9254 144.55 90.4043 143.088 89.9701C141.998 89.6378 141.074 88.9048 140.502 87.9185C139.93 86.9323 139.754 85.7661 140.007 84.6548C140.378 82.9181 140.767 81.1878 141.15 79.4544L140.828 79.1128ZM132.381 64.779L131.79 64.4437L124.869 75.9363L125.342 76.2237C128.256 72.7759 131.535 69.5356 132.381 64.779Z" fill="black"/>
<path d="M152.224 85.6159C153.112 82.3725 153.734 79.03 154.935 75.9047C159.589 63.7928 164.423 51.7511 169.195 39.6838C169.949 37.7684 170.759 35.8849 171.506 33.9727C171.973 32.7723 172.783 32.3765 173.84 33.0852C175.031 33.8606 176.144 34.7501 177.163 35.7412C177.483 36.0605 177.556 37.0533 177.301 37.4619C172.831 44.6448 169.846 52.5045 167.047 60.4088C164.046 68.8846 161.457 77.5073 158.705 86.0724C158.502 86.7812 158.354 87.505 158.264 88.2369C158.003 89.948 157.479 90.3407 155.832 89.9863C154.028 89.6 152.432 87.5601 152.224 85.6159Z" fill="black"/>
<path d="M46.4468 144.667V134.485H52.5519V135.579H47.6798V139.019H52.0945V140.113H47.6798V144.667H46.4468ZM55.8966 134.485V144.667H54.6636V134.485H55.8966ZM57.8119 135.579V134.485H65.4482V135.579H62.2465V144.667H61.0136V135.579H57.8119ZM75.425 134.485V144.667H74.2318L68.6835 136.672H68.5841V144.667H67.3511V134.485H68.5443L74.1125 142.499H74.2119V134.485H75.425ZM77.8921 144.667V134.485H84.037V135.579H79.1251V139.019H83.7188V140.113H79.1251V143.573H84.1166V144.667H77.8921ZM91.8275 137.03C91.7678 136.526 91.5259 136.135 91.1017 135.857C90.6774 135.579 90.157 135.439 89.5406 135.439C89.0898 135.439 88.6954 135.512 88.3573 135.658C88.0226 135.804 87.7607 136.004 87.5718 136.26C87.3862 136.515 87.2934 136.805 87.2934 137.13C87.2934 137.401 87.358 137.635 87.4873 137.831C87.6199 138.023 87.7889 138.184 87.9944 138.313C88.1999 138.439 88.4153 138.543 88.6407 138.626C88.8661 138.706 89.0732 138.77 89.2622 138.82L90.2963 139.098C90.5614 139.168 90.8564 139.264 91.1812 139.387C91.5093 139.509 91.8225 139.677 92.1208 139.889C92.4224 140.098 92.671 140.366 92.8666 140.694C93.0621 141.022 93.1599 141.425 93.1599 141.902C93.1599 142.453 93.0157 142.95 92.7274 143.394C92.4423 143.838 92.0247 144.191 91.4745 144.453C90.9276 144.715 90.2631 144.846 89.4809 144.846C88.7517 144.846 88.1204 144.728 87.5867 144.493C87.0564 144.257 86.6388 143.929 86.3339 143.508C86.0323 143.087 85.8616 142.598 85.8218 142.042H87.0945C87.1277 142.426 87.257 142.744 87.4823 142.996C87.711 143.245 87.9994 143.43 88.3474 143.553C88.6987 143.672 89.0766 143.732 89.4809 143.732C89.9516 143.732 90.3741 143.656 90.7487 143.503C91.1232 143.347 91.4198 143.132 91.6386 142.857C91.8573 142.579 91.9667 142.254 91.9667 141.883C91.9667 141.544 91.8722 141.269 91.6833 141.057C91.4944 140.845 91.2458 140.673 90.9376 140.54C90.6294 140.408 90.2963 140.292 89.9383 140.192L88.6855 139.834C87.89 139.606 87.2603 139.279 86.7963 138.855C86.3322 138.431 86.1002 137.875 86.1002 137.189C86.1002 136.619 86.2544 136.122 86.5626 135.698C86.8741 135.27 87.2918 134.939 87.8154 134.704C88.3424 134.465 88.9307 134.346 89.5803 134.346C90.2366 134.346 90.8199 134.463 91.3303 134.699C91.8408 134.931 92.2451 135.249 92.5434 135.653C92.845 136.057 93.0041 136.517 93.0207 137.03H91.8275ZM100.755 137.03C100.696 136.526 100.454 136.135 100.029 135.857C99.6051 135.579 99.0848 135.439 98.4683 135.439C98.0175 135.439 97.6231 135.512 97.2851 135.658C96.9503 135.804 96.6885 136.004 96.4996 136.26C96.314 136.515 96.2211 136.805 96.2211 137.13C96.2211 137.401 96.2858 137.635 96.415 137.831C96.5476 138.023 96.7166 138.184 96.9221 138.313C97.1276 138.439 97.3431 138.543 97.5684 138.626C97.7938 138.706 98.001 138.77 98.1899 138.82L99.224 139.098C99.4891 139.168 99.7841 139.264 100.109 139.387C100.437 139.509 100.75 139.677 101.049 139.889C101.35 140.098 101.599 140.366 101.794 140.694C101.99 141.022 102.088 141.425 102.088 141.902C102.088 142.453 101.943 142.95 101.655 143.394C101.37 143.838 100.952 144.191 100.402 144.453C99.8554 144.715 99.1908 144.846 98.4086 144.846C97.6795 144.846 97.0481 144.728 96.5145 144.493C95.9842 144.257 95.5666 143.929 95.2616 143.508C94.96 143.087 94.7893 142.598 94.7496 142.042H96.0223C96.0554 142.426 96.1847 142.744 96.4101 142.996C96.6388 143.245 96.9271 143.43 97.2751 143.553C97.6265 143.672 98.0043 143.732 98.4086 143.732C98.8793 143.732 99.3019 143.656 99.6764 143.503C100.051 143.347 100.348 143.132 100.566 142.857C100.785 142.579 100.894 142.254 100.894 141.883C100.894 141.544 100.8 141.269 100.611 141.057C100.422 140.845 100.174 140.673 99.8653 140.54C99.5571 140.408 99.224 140.292 98.866 140.192L97.6132 139.834C96.8177 139.606 96.188 139.279 95.724 138.855C95.26 138.431 95.028 137.875 95.028 137.189C95.028 136.619 95.1821 136.122 95.4903 135.698C95.8019 135.27 96.2195 134.939 96.7432 134.704C97.2702 134.465 97.8585 134.346 98.5081 134.346C99.1643 134.346 99.7477 134.463 100.258 134.699C100.768 134.931 101.173 135.249 101.471 135.653C101.773 136.057 101.932 136.517 101.948 137.03H100.755ZM107.177 134.485H108.589L111.413 139.238H111.532L114.356 134.485H115.768L112.089 140.471V144.667H110.856V140.471L107.177 134.485ZM125.475 139.576C125.475 140.65 125.281 141.578 124.894 142.36C124.506 143.142 123.974 143.745 123.298 144.169C122.622 144.594 121.849 144.806 120.981 144.806C120.113 144.806 119.34 144.594 118.664 144.169C117.988 143.745 117.456 143.142 117.068 142.36C116.68 141.578 116.487 140.65 116.487 139.576C116.487 138.502 116.68 137.574 117.068 136.792C117.456 136.009 117.988 135.406 118.664 134.982C119.34 134.558 120.113 134.346 120.981 134.346C121.849 134.346 122.622 134.558 123.298 134.982C123.974 135.406 124.506 136.009 124.894 136.792C125.281 137.574 125.475 138.502 125.475 139.576ZM124.282 139.576C124.282 138.694 124.135 137.95 123.84 137.343C123.548 136.737 123.152 136.278 122.651 135.966C122.154 135.655 121.597 135.499 120.981 135.499C120.364 135.499 119.806 135.655 119.305 135.966C118.808 136.278 118.412 136.737 118.117 137.343C117.826 137.95 117.68 138.694 117.68 139.576C117.68 140.457 117.826 141.201 118.117 141.808C118.412 142.414 118.808 142.874 119.305 143.185C119.806 143.497 120.364 143.652 120.981 143.652C121.597 143.652 122.154 143.497 122.651 143.185C123.152 142.874 123.548 142.414 123.84 141.808C124.135 141.201 124.282 140.457 124.282 139.576ZM134.509 137.667C134.399 137.332 134.255 137.032 134.076 136.767C133.9 136.498 133.69 136.27 133.445 136.081C133.203 135.892 132.928 135.748 132.619 135.648C132.311 135.549 131.973 135.499 131.605 135.499C131.002 135.499 130.453 135.655 129.96 135.966C129.466 136.278 129.073 136.737 128.781 137.343C128.49 137.95 128.344 138.694 128.344 139.576C128.344 140.457 128.491 141.201 128.786 141.808C129.081 142.414 129.481 142.874 129.984 143.185C130.488 143.497 131.055 143.652 131.685 143.652C132.268 143.652 132.782 143.528 133.226 143.28C133.673 143.028 134.021 142.673 134.27 142.216C134.522 141.755 134.648 141.213 134.648 140.59L135.026 140.669H131.963V139.576H135.841V140.669C135.841 141.508 135.662 142.237 135.304 142.857C134.949 143.477 134.459 143.957 133.832 144.299C133.209 144.637 132.493 144.806 131.685 144.806C130.783 144.806 129.991 144.594 129.308 144.169C128.629 143.745 128.099 143.142 127.717 142.36C127.34 141.578 127.151 140.65 127.151 139.576C127.151 138.77 127.258 138.046 127.474 137.403C127.693 136.757 128.001 136.207 128.399 135.753C128.796 135.298 129.267 134.95 129.81 134.709C130.354 134.467 130.952 134.346 131.605 134.346C132.142 134.346 132.643 134.427 133.107 134.589C133.574 134.748 133.99 134.975 134.354 135.27C134.722 135.562 135.029 135.912 135.274 136.319C135.52 136.724 135.689 137.173 135.781 137.667H134.509ZM138.056 144.667H136.763L140.502 134.485H141.775L145.513 144.667H144.221L141.178 136.096H141.098L138.056 144.667ZM138.533 140.689H143.743V141.783H138.533V140.689ZM153.761 144.806C153.092 144.806 152.515 144.683 152.031 144.438C151.547 144.193 151.174 143.856 150.912 143.429C150.651 143.001 150.52 142.512 150.52 141.962C150.52 141.538 150.609 141.162 150.788 140.834C150.97 140.502 151.221 140.196 151.539 139.914C151.86 139.629 152.23 139.344 152.647 139.059L154.119 137.965C154.407 137.776 154.638 137.574 154.81 137.358C154.986 137.143 155.074 136.861 155.074 136.513C155.074 136.255 154.959 136.004 154.731 135.763C154.505 135.521 154.209 135.4 153.841 135.4C153.582 135.4 153.353 135.466 153.155 135.598C152.959 135.728 152.805 135.893 152.692 136.096C152.583 136.294 152.528 136.5 152.528 136.712C152.528 136.951 152.593 137.193 152.722 137.438C152.855 137.68 153.022 137.928 153.224 138.184C153.43 138.436 153.642 138.694 153.861 138.959L158.534 144.667H157.122L153.264 140.013C152.906 139.582 152.581 139.191 152.29 138.84C151.998 138.489 151.766 138.142 151.593 137.801C151.421 137.459 151.335 137.09 151.335 136.692C151.335 136.235 151.436 135.834 151.638 135.489C151.844 135.141 152.13 134.871 152.498 134.679C152.87 134.483 153.304 134.385 153.801 134.385C154.311 134.385 154.75 134.485 155.118 134.684C155.486 134.879 155.77 135.139 155.968 135.464C156.167 135.786 156.267 136.135 156.267 136.513C156.267 137 156.146 137.423 155.904 137.781C155.662 138.139 155.332 138.472 154.915 138.78L152.886 140.292C152.429 140.63 152.119 140.958 151.956 141.276C151.794 141.594 151.713 141.823 151.713 141.962C151.713 142.28 151.796 142.577 151.961 142.852C152.127 143.127 152.361 143.349 152.662 143.518C152.964 143.687 153.317 143.772 153.721 143.772C154.106 143.772 154.48 143.691 154.845 143.528C155.209 143.362 155.539 143.124 155.834 142.812C156.133 142.501 156.368 142.126 156.54 141.689C156.716 141.251 156.804 140.759 156.804 140.212H157.937C157.937 140.888 157.859 141.44 157.704 141.868C157.548 142.295 157.372 142.63 157.177 142.872C156.981 143.114 156.824 143.294 156.704 143.414C156.665 143.464 156.628 143.513 156.595 143.563C156.562 143.613 156.525 143.662 156.486 143.712C156.157 144.08 155.743 144.355 155.243 144.537C154.742 144.716 154.248 144.806 153.761 144.806ZM163.929 144.667V134.485H167.37C168.168 134.485 168.821 134.629 169.328 134.917C169.839 135.202 170.217 135.589 170.462 136.076C170.707 136.563 170.83 137.106 170.83 137.706C170.83 138.306 170.707 138.852 170.462 139.342C170.22 139.833 169.845 140.224 169.338 140.515C168.831 140.804 168.182 140.948 167.389 140.948H164.924V139.854H167.35C167.897 139.854 168.336 139.76 168.667 139.571C168.999 139.382 169.239 139.127 169.388 138.805C169.541 138.48 169.617 138.114 169.617 137.706C169.617 137.299 169.541 136.934 169.388 136.613C169.239 136.291 168.997 136.039 168.662 135.857C168.327 135.671 167.883 135.579 167.33 135.579H165.162V144.667H163.929ZM181.407 139.576C181.407 140.65 181.213 141.578 180.825 142.36C180.437 143.142 179.905 143.745 179.229 144.169C178.553 144.594 177.781 144.806 176.913 144.806C176.044 144.806 175.272 144.594 174.596 144.169C173.92 143.745 173.388 143.142 173 142.36C172.612 141.578 172.418 140.65 172.418 139.576C172.418 138.502 172.612 137.574 173 136.792C173.388 136.009 173.92 135.406 174.596 134.982C175.272 134.558 176.044 134.346 176.913 134.346C177.781 134.346 178.553 134.558 179.229 134.982C179.905 135.406 180.437 136.009 180.825 136.792C181.213 137.574 181.407 138.502 181.407 139.576ZM180.214 139.576C180.214 138.694 180.066 137.95 179.771 137.343C179.48 136.737 179.083 136.278 178.583 135.966C178.086 135.655 177.529 135.499 176.913 135.499C176.296 135.499 175.738 135.655 175.237 135.966C174.74 136.278 174.344 136.737 174.049 137.343C173.757 137.95 173.611 138.694 173.611 139.576C173.611 140.457 173.757 141.201 174.049 141.808C174.344 142.414 174.74 142.874 175.237 143.185C175.738 143.497 176.296 143.652 176.913 143.652C177.529 143.652 178.086 143.497 178.583 143.185C179.083 142.874 179.48 142.414 179.771 141.808C180.066 141.201 180.214 140.457 180.214 139.576ZM192.071 139.576C192.071 140.65 191.877 141.578 191.489 142.36C191.101 143.142 190.57 143.745 189.893 144.169C189.217 144.594 188.445 144.806 187.577 144.806C186.708 144.806 185.936 144.594 185.26 144.169C184.584 143.745 184.052 143.142 183.664 142.36C183.276 141.578 183.082 140.65 183.082 139.576C183.082 138.502 183.276 137.574 183.664 136.792C184.052 136.009 184.584 135.406 185.26 134.982C185.936 134.558 186.708 134.346 187.577 134.346C188.445 134.346 189.217 134.558 189.893 134.982C190.57 135.406 191.101 136.009 191.489 136.792C191.877 137.574 192.071 138.502 192.071 139.576ZM190.878 139.576C190.878 138.694 190.73 137.95 190.435 137.343C190.144 136.737 189.748 136.278 189.247 135.966C188.75 135.655 188.193 135.499 187.577 135.499C186.96 135.499 186.402 135.655 185.901 135.966C185.404 136.278 185.008 136.737 184.713 137.343C184.421 137.95 184.275 138.694 184.275 139.576C184.275 140.457 184.421 141.201 184.713 141.808C185.008 142.414 185.404 142.874 185.901 143.185C186.402 143.497 186.96 143.652 187.577 143.652C188.193 143.652 188.75 143.497 189.247 143.185C189.748 142.874 190.144 142.414 190.435 141.808C190.73 141.201 190.878 140.457 190.878 139.576ZM194.144 144.667V134.485H195.377V143.573H200.11V144.667H194.144Z" fill="black"/>
</svg>
