<svg width="60" height="60" viewBox="0 0 60 60" fill="none" xmlns="http://www.w3.org/2000/svg">
<path d="M35.4374 29.8707C34.7191 31.1249 33.975 32.3661 33.2825 33.636C31.1104 37.6254 28.9728 41.6334 26.7892 45.6185C26.1715 46.7476 25.298 47.1657 24.4907 46.7835C23.4046 46.2692 22.116 45.1688 22.593 43.7323C23.6819 40.4468 24.8067 37.1729 25.8971 33.886C26.8237 31.0746 27.7646 28.2675 28.5849 25.4245C28.8608 24.462 28.799 23.3932 28.8162 22.3718C28.8162 22.1922 28.4571 21.8604 28.2502 21.8489C27.5132 21.8072 27.4831 21.8302 27.1972 21.1378C27.8609 20.6479 29.1294 20.9194 29.8635 21.6578C30.734 22.5356 31.0429 23.6446 30.9754 24.7925C30.8648 26.6887 30.6349 28.5807 30.3634 30.4626C30.2025 31.5788 29.8664 32.6692 29.5604 33.9808C30.2672 32.8703 30.8389 31.9078 31.4724 30.9898C32.8659 28.97 34.2551 26.9473 35.7146 24.9778C36.6728 23.6849 37.4515 23.6475 38.6237 24.7264C38.8521 24.9375 39.0619 25.3542 39.0231 25.64C38.809 27.1872 38.5217 28.7258 38.2459 30.2644C37.756 32.9939 37.2403 35.7234 36.7763 38.4528C36.6671 39.105 36.7174 39.7932 36.7634 40.464C36.775 40.5982 36.815 40.7284 36.8806 40.846C36.9462 40.9636 37.036 41.066 37.144 41.1464C37.2992 41.2326 37.6856 41.1163 37.8365 40.9611C38.6826 40.0891 39.5604 39.23 40.2973 38.2733C43.7983 33.7624 46.4028 28.7603 48.2559 23.3702C48.9381 21.3578 49.135 19.2126 48.8306 17.1096C48.5792 15.2421 47.1196 14.0928 45.571 13.7754C43.3026 13.3128 41.0817 13.7093 38.8766 14.2638C38.0031 14.4836 37.1225 14.6732 36.2404 14.86C36.0326 14.9171 35.8144 14.9259 35.6026 14.8858C35.39 14.8284 35.2061 14.6632 35.0093 14.5439C35.153 14.373 35.2535 14.1331 35.4331 14.0397C38.118 12.652 40.9524 11.8187 43.9979 12.0529C47.0665 12.2871 49.7241 13.4708 51.6448 15.9546C52.9607 17.6555 53.2006 19.6725 52.8918 21.7311C52.162 26.6155 49.9842 30.9424 47.4802 35.1027C46.2124 37.2006 44.7987 39.2067 43.2495 41.1062C42.366 42.1922 41.1952 43.1174 39.9956 43.8615C36.897 45.7822 34.3097 43.3501 33.7509 40.885C33.2495 38.6769 33.8385 36.4876 34.3427 34.3356C34.6875 32.866 35.1371 31.4222 35.5408 29.9684L35.4374 29.8707Z" fill="white"/>
<path d="M39.0632 53.5442C37.7445 55.1991 35.9444 56.0869 33.9433 56.561C27.8163 58.0249 22.9822 55.7206 18.9785 51.2457C14.6256 46.3814 12.0571 40.5906 10.4467 34.3329C9.20976 29.5261 8.69978 24.6417 9.17672 19.6942C9.60769 15.1848 10.8015 10.921 13.7192 7.3037C16.9069 3.36461 23.0928 1.87776 27.7272 3.90333C30.4567 5.09568 32.6949 6.92013 34.7003 9.075C34.9127 9.30215 35.0571 9.58437 35.117 9.88953C34.8296 9.73151 34.5323 9.5778 34.2435 9.41546C32.33 8.34091 30.4725 7.1428 28.4886 6.21909C26.0249 5.06983 23.4161 4.50956 20.7081 5.42897C18.4915 6.18173 17.1052 7.87115 15.9502 9.78467C13.2207 14.3286 12.3587 19.3135 12.646 24.5196C12.9966 30.9655 14.5869 37.1112 17.5146 42.8762C19.4367 46.6601 21.866 50.0763 25.3051 52.6636C27.233 54.1131 29.3707 55.0813 31.81 55.225C33.5051 55.3255 35.1342 54.9535 36.7245 54.4033C37.5089 54.1303 38.2832 53.8301 39.0632 53.5442Z" fill="#7E58E3"/>
</svg>
