<svg width="105" height="60" viewBox="0 0 105 60" fill="none" xmlns="http://www.w3.org/2000/svg">
<path d="M35.4374 29.8707C34.7191 31.1249 33.975 32.3661 33.2825 33.636C31.1104 37.6254 28.9728 41.6334 26.7892 45.6185C26.1715 46.7476 25.298 47.1657 24.4907 46.7835C23.4046 46.2692 22.116 45.1688 22.593 43.7323C23.6819 40.4468 24.8067 37.1729 25.8971 33.886C26.8237 31.0746 27.7646 28.2675 28.5849 25.4245C28.8608 24.462 28.799 23.3932 28.8162 22.3718C28.8162 22.1922 28.4571 21.8604 28.2502 21.8489C27.5132 21.8072 27.4831 21.8302 27.1972 21.1378C27.8609 20.6479 29.1294 20.9194 29.8635 21.6578C30.734 22.5356 31.0429 23.6446 30.9754 24.7925C30.8648 26.6887 30.6349 28.5807 30.3634 30.4626C30.2025 31.5788 29.8664 32.6692 29.5604 33.9808C30.2672 32.8703 30.8389 31.9078 31.4724 30.9898C32.8659 28.97 34.2551 26.9473 35.7146 24.9778C36.6728 23.6849 37.4515 23.6475 38.6237 24.7264C38.8521 24.9375 39.0619 25.3542 39.0231 25.64C38.809 27.1872 38.5217 28.7258 38.2459 30.2644C37.756 32.9939 37.2403 35.7234 36.7763 38.4528C36.6671 39.105 36.7174 39.7932 36.7634 40.464C36.775 40.5982 36.815 40.7284 36.8806 40.846C36.9462 40.9636 37.036 41.066 37.144 41.1464C37.2992 41.2326 37.6856 41.1163 37.8365 40.9611C38.6826 40.0891 39.5604 39.23 40.2973 38.2733C43.7983 33.7624 46.4028 28.7603 48.2559 23.3702C48.9381 21.3578 49.135 19.2126 48.8306 17.1096C48.5792 15.2421 47.1196 14.0928 45.571 13.7754C43.3026 13.3128 41.0817 13.7093 38.8766 14.2638C38.0031 14.4836 37.1225 14.6732 36.2404 14.86C36.0326 14.9171 35.8144 14.9259 35.6026 14.8858C35.39 14.8284 35.2061 14.6632 35.0093 14.5439C35.153 14.373 35.2535 14.1331 35.4331 14.0397C38.118 12.652 40.9524 11.8187 43.9979 12.0529C47.0665 12.2871 49.7241 13.4708 51.6448 15.9546C52.9607 17.6555 53.2006 19.6725 52.8918 21.7311C52.162 26.6155 49.9842 30.9424 47.4802 35.1027C46.2124 37.2006 44.7987 39.2067 43.2495 41.1062C42.366 42.1922 41.1952 43.1174 39.9956 43.8615C36.897 45.7822 34.3097 43.3501 33.7509 40.885C33.2495 38.6769 33.8385 36.4876 34.3427 34.3356C34.6875 32.866 35.1371 31.4222 35.5408 29.9684L35.4374 29.8707Z" fill="white"/>
<path d="M83.6315 30.6091C82.8299 31.3274 81.8143 32.1793 80.8503 33.093C79.3635 34.5022 78.0461 36.1098 76.2245 37.1269C75.716 37.4142 75.1428 37.667 74.5754 37.7317C72.8515 37.927 70.9394 36.1514 70.948 34.3801C70.948 33.5843 71.0198 32.7381 71.2957 32.0026C72.2194 29.5331 73.2379 27.0996 74.2507 24.6631C74.538 23.9721 74.8483 23.9032 75.5436 24.2322C76.7704 24.8154 77.1756 25.6443 76.769 27.0967C76.2461 28.9642 75.6068 30.8002 75.0624 32.662C74.9345 33.103 74.9833 33.5943 74.9517 34.0626C75.3353 33.8759 75.7792 33.761 76.0938 33.488C78.921 31.0703 81.741 28.6439 84.5193 26.1615C84.9029 25.8196 85.0221 25.1904 85.3008 24.7163C85.5163 24.3471 85.7864 24.0109 86.0335 23.6604C86.4645 23.9664 87.131 24.1934 87.2646 24.5985C87.5395 25.4311 87.6431 26.3107 87.5692 27.1843C87.4255 28.7646 87.0894 30.3146 86.8207 31.9609C87.9096 31.5084 89.0173 31.0386 90.1248 30.5861C91.4178 30.0589 92.7107 29.5274 94.0252 29.0418C94.3315 28.924 94.6699 28.9199 94.979 29.0303C95.2937 29.174 95.5178 29.513 95.7806 29.7687C95.5537 29.9727 95.3583 30.2342 95.0983 30.3706C92.1662 31.9006 89.2184 33.4004 86.2935 34.9418C85.9564 35.1291 85.6888 35.4204 85.5307 35.7722C83.9821 39.5374 82.3271 43.2424 79.9841 46.6039C78.7228 48.4097 77.3709 50.1336 75.4862 51.3446C74.2349 52.1635 72.8644 52.6548 71.3617 52.3517C69.9338 52.0557 68.4024 49.7141 68.4498 48.0707C68.4943 46.5134 69.204 45.2421 70.1421 44.0698C72.3444 41.3173 75.0854 39.1711 77.9556 37.1743C79.069 36.4014 80.2541 35.7219 81.3661 34.9576C81.6895 34.7346 81.9498 34.4317 82.1217 34.0784C82.6978 32.8372 83.2164 31.5731 83.6315 30.6091ZM79.6939 39.5331L79.4913 39.4196C79.4267 39.4428 79.3641 39.4716 79.3046 39.5058C76.9285 41.1981 74.6817 43.0542 72.771 45.2521C72.0154 46.1227 71.56 47.2633 71.0471 48.3192C70.9451 48.529 71.0945 48.9944 71.2856 49.1812C71.4379 49.3248 71.8473 49.2803 72.1116 49.207C72.3487 49.1424 72.5584 48.9427 72.7581 48.776C75.298 46.6212 77.1899 43.9477 78.9555 41.1622C79.2629 40.6651 79.4439 40.079 79.6939 39.5331Z" fill="white"/>
<path d="M39.0632 53.5442C37.7445 55.1991 35.9444 56.0869 33.9433 56.561C27.8163 58.0249 22.9822 55.7206 18.9785 51.2457C14.6256 46.3814 12.0571 40.5906 10.4467 34.3329C9.20976 29.5261 8.69978 24.6417 9.17672 19.6942C9.60769 15.1848 10.8015 10.921 13.7192 7.3037C16.9069 3.36461 23.0928 1.87776 27.7272 3.90333C30.4567 5.09568 32.6949 6.92013 34.7003 9.075C34.9127 9.30215 35.0571 9.58437 35.117 9.88953C34.8296 9.73151 34.5323 9.5778 34.2435 9.41546C32.33 8.34091 30.4725 7.1428 28.4886 6.21909C26.0249 5.06983 23.4161 4.50956 20.7081 5.42897C18.4915 6.18173 17.1052 7.87115 15.9502 9.78467C13.2207 14.3286 12.3587 19.3135 12.646 24.5196C12.9966 30.9655 14.5869 37.1112 17.5146 42.8762C19.4367 46.6601 21.866 50.0763 25.3051 52.6636C27.233 54.1131 29.3707 55.0813 31.81 55.225C33.5051 55.3255 35.1342 54.9535 36.7245 54.4033C37.5089 54.1303 38.2832 53.8301 39.0632 53.5442Z" fill="#7E58E3"/>
<path d="M60.2226 35.0007C59.5531 35.7334 58.9598 36.5594 58.1984 37.1771C56.9659 38.1827 55.7017 39.1883 54.3111 39.9339C51.9924 41.1722 49.7399 39.7443 49.5143 37.0837C49.3707 35.3081 49.8706 33.7178 50.6363 32.1491C51.6865 29.9942 52.8372 27.9184 54.4016 26.0982C54.8958 25.5236 55.4431 24.9691 56.2993 24.949C57.8795 24.9174 59.4741 26.7979 59.1179 28.3968C58.3354 31.8944 56.2423 34.2479 52.8386 35.4575C52.5775 35.5705 52.3666 35.7748 52.2453 36.0322C52.1006 36.3814 52.0123 36.7514 51.9838 37.1283C51.9206 37.6957 52.353 38.0534 52.9277 37.9342C54.4447 37.6239 55.5868 36.6413 56.6627 35.6543C58.4211 34.0396 60.0703 32.3071 61.7425 30.6005C61.9781 30.3591 62.1031 29.9957 62.2367 29.671C64.131 25.0625 66.0235 20.4477 67.914 15.8267C68.0304 15.5394 68.1266 15.2521 68.2315 14.9648C68.5461 14.0942 68.8765 13.9592 69.6681 14.4146C69.9124 14.5632 70.1453 14.7298 70.3648 14.9131C71.2081 15.5753 71.1506 15.7434 70.7081 16.6901C69.329 19.6308 67.9327 22.57 66.7202 25.5825C65.1285 29.5403 63.6933 33.5627 62.6978 37.7216C62.5814 38.2057 62.524 38.7042 62.4205 39.1926C62.2769 39.8664 61.8976 40.0819 61.2397 39.8865C60.749 39.737 60.3332 39.4071 60.0759 38.9633C59.8187 38.5195 59.7392 37.9947 59.8534 37.4946C60.02 36.7131 60.1953 35.9345 60.3677 35.1544L60.2226 35.0007ZM56.4214 28.5505L56.1556 28.3996L53.0411 33.5713L53.2538 33.7006C54.5654 32.1491 56.0407 30.691 56.4214 28.5505Z" fill="white"/>
<path d="M65.3511 37.9272C65.7504 36.4677 66.0306 34.9636 66.5707 33.5572C68.6653 28.1068 70.8402 22.688 72.9879 17.2578C73.3269 16.3958 73.6918 15.5483 74.028 14.6877C74.2377 14.1476 74.6026 13.9695 75.0781 14.2884C75.6142 14.6373 76.1151 15.0376 76.5736 15.4836C76.7173 15.6273 76.7503 16.074 76.6354 16.2579C74.6242 19.4902 73.281 23.0271 72.0211 26.584C70.6707 30.3981 69.5057 34.2783 68.2673 38.1326C68.1758 38.4516 68.1095 38.7773 68.0691 39.1066C67.9513 39.8766 67.7157 40.0533 66.9744 39.8939C66.1627 39.7201 65.4445 38.8021 65.3511 37.9272Z" fill="white"/>
</svg>
